# xmcd CD database file
#
# Track frame offsets:
#	225
#	12583
#	28109
#	39872
#	52387
#	70062
#	84698
#	96724
#	115928
#	129515
#	143976
#	156779
#	176500
#
# Disc length: 2548 seconds
#
# Revision: 0
# Processed by: cddbd v1.5.2PL0 Copyright (c) Steve Scherf et al.
# Submitted via: CDex 1.79
#
DISCID=bb09f10d
DTITLE=Lynn Beckman - Connected: Grassland To Gloryland
DYEAR=2009
DGENRE=Country
TTITLE0=The Royal Telephone
TTITLE1=What Hurt Him More
TTITLE2=If Not Today Maybe Tomorrow
TTITLE3=Tell The Storm
TTITLE4=Life`s Railway To Heaven
TTITLE5=An Endless Walk
TTITLE6=If I Could Hear My Mother Pray Again
TTITLE7=Precious Memories
TTITLE8=Meeting In The Air
TTITLE9=The Holy Spirit Stream
TTITLE10=Unclouded Day
TTITLE11=God Knows
TTITLE12=I Roll On For Jesus
EXTD=YEAR: 2009
EXTT0=
EXTT1=
EXTT2=
EXTT3=
EXTT4=
EXTT5=
EXTT6=
EXTT7=
EXTT8=
EXTT9=
EXTT10=
EXTT11=
EXTT12=
PLAYORDER=
